<?xml version="1.0" encoding="utf-8"?>
<!-- Generator: Adobe Illustrator 25.2.1, SVG Export Plug-In . SVG Version: 6.00 Build 0)  -->
<svg version="1.1" id="Layer_1" xmlns="http://www.w3.org/2000/svg" xmlns:xlink="http://www.w3.org/1999/xlink" x="0px" y="0px"
	 viewBox="0 0 209.4 90.6" style="enable-background:new 0 0 209.4 90.6;" xml:space="preserve">
<style type="text/css">
	.st0{opacity:0.3;fill:#E53005;}
	.st1{opacity:0.3;fill:#39B54A;}
</style>
<path class="st0" d="M87.5,0c0,0-8,8.3-19,6.6c0,0-3.2,17.6-7.8,23c0,0-2,5.2-0.9,14.3l3.7,45.2c0,0,2.2,3.2,5.1-0.1l0.7-43.6
	c0,0,3-3.8,5.8-0.1l0.7,43.1c0,0,2.6,4.4,5.8,0.1l0.5-43.3c0,0,3.4-3.7,6.1-0.1l0.7,43.3c0,0,1.7,3.7,5.2,0.4c0,0,5.2-52.6,2.3-58.6
	C96.4,30.2,88.8,23.3,87.5,0z"/>
<path class="st1" d="M53.7,83.2c-6.7-13.7-18.9-24-33.6-28.2c0,0,17.5,6.8,28,29.6c0,0-3.7,14.7-28-2.1c0,0-9.6-8.9-11.7-18
	c0,0-5.4-13.5-8.4-15c0,0,17-7.2,38.8,2.9C38.8,52.4,68.2,66.9,53.7,83.2z"/>
</svg>
